<svg width="24" height="24" viewBox="0 0 24 24" fill="none" xmlns="http://www.w3.org/2000/svg">
<path d="M18.7376 16.7652H20.71C21.3017 16.7652 21.6962 16.3707 21.6962 15.779V12.8205C21.6962 11.9329 21.0058 11.1439 20.2169 10.9467C18.4417 10.4536 15.779 9.86189 15.779 9.86189C15.779 9.86189 14.497 8.48122 13.6094 7.59365C13.1163 7.19918 12.5246 6.90332 11.8343 6.90332H4.93095C4.33924 6.90332 3.84614 7.2978 3.55028 7.79089L2.16962 10.6508C2.03903 11.0317 1.97238 11.4316 1.97238 11.8343V15.779C1.97238 16.3707 2.36686 16.7652 2.95857 16.7652H4.93095" stroke="#F61414" stroke-width="1.97238" stroke-linecap="round" stroke-linejoin="round"/>
<path d="M6.90332 18.7377C7.99263 18.7377 8.8757 17.8547 8.8757 16.7653C8.8757 15.676 7.99263 14.793 6.90332 14.793C5.814 14.793 4.93094 15.676 4.93094 16.7653C4.93094 17.8547 5.814 18.7377 6.90332 18.7377Z" stroke="#F61414" stroke-width="1.97238" stroke-linecap="round" stroke-linejoin="round"/>
<path d="M8.8757 16.7656H14.7928" stroke="#F61414" stroke-width="1.97238" stroke-linecap="round" stroke-linejoin="round"/>
<path d="M16.7652 18.7377C17.8545 18.7377 18.7376 17.8547 18.7376 16.7653C18.7376 15.676 17.8545 14.793 16.7652 14.793C15.6759 14.793 14.7928 15.676 14.7928 16.7653C14.7928 17.8547 15.6759 18.7377 16.7652 18.7377Z" stroke="#F61414" stroke-width="1.97238" stroke-linecap="round" stroke-linejoin="round"/>
</svg>
